<svg xmlns="http://www.w3.org/2000/svg" width="31" height="41" viewBox="0 0 31 41">
  <g id="Сгруппировать_1607" data-name="Сгруппировать 1607" transform="translate(-359.5 -499.5)">
    <rect id="Прямоугольник_28" data-name="Прямоугольник 28" width="30" height="40" rx="2" transform="translate(360 500)" fill="none" stroke="#666" stroke-linecap="round" stroke-linejoin="round" stroke-width="1"/>
    <g id="Прямоугольник_29" data-name="Прямоугольник 29" transform="translate(364 504)" fill="#666" stroke="#666" stroke-linecap="round" stroke-linejoin="round" stroke-width="1">
      <rect width="22" height="8" stroke="none"/>
      <rect x="0.5" y="0.5" width="21" height="7" fill="none"/>
    </g>
    <g id="Прямоугольник_30" data-name="Прямоугольник 30" transform="translate(364 532)" fill="none" stroke="#666" stroke-linecap="round" stroke-linejoin="round" stroke-width="1">
      <rect width="4" height="4" stroke="none"/>
      <rect x="0.5" y="0.5" width="3" height="3" fill="none"/>
    </g>
    <g id="Прямоугольник_31" data-name="Прямоугольник 31" transform="translate(370 532)" fill="none" stroke="#666" stroke-linecap="round" stroke-linejoin="round" stroke-width="1">
      <rect width="4" height="4" stroke="none"/>
      <rect x="0.5" y="0.5" width="3" height="3" fill="none"/>
    </g>
    <g id="Прямоугольник_32" data-name="Прямоугольник 32" transform="translate(364 526)" fill="none" stroke="#666" stroke-linecap="round" stroke-linejoin="round" stroke-width="1">
      <rect width="4" height="4" stroke="none"/>
      <rect x="0.5" y="0.5" width="3" height="3" fill="none"/>
    </g>
    <g id="Прямоугольник_33" data-name="Прямоугольник 33" transform="translate(370 526)" fill="none" stroke="#666" stroke-linecap="round" stroke-linejoin="round" stroke-width="1">
      <rect width="4" height="4" stroke="none"/>
      <rect x="0.5" y="0.5" width="3" height="3" fill="none"/>
    </g>
    <g id="Прямоугольник_34" data-name="Прямоугольник 34" transform="translate(364 520)" fill="none" stroke="#666" stroke-linecap="round" stroke-linejoin="round" stroke-width="1">
      <rect width="4" height="4" stroke="none"/>
      <rect x="0.5" y="0.5" width="3" height="3" fill="none"/>
    </g>
    <g id="Прямоугольник_35" data-name="Прямоугольник 35" transform="translate(370 520)" fill="none" stroke="#666" stroke-linecap="round" stroke-linejoin="round" stroke-width="1">
      <rect width="4" height="4" stroke="none"/>
      <rect x="0.5" y="0.5" width="3" height="3" fill="none"/>
    </g>
    <g id="Прямоугольник_36" data-name="Прямоугольник 36" transform="translate(364 514)" fill="none" stroke="#666" stroke-linecap="round" stroke-linejoin="round" stroke-width="1">
      <rect width="4" height="4" stroke="none"/>
      <rect x="0.5" y="0.5" width="3" height="3" fill="none"/>
    </g>
    <g id="Прямоугольник_37" data-name="Прямоугольник 37" transform="translate(370 514)" fill="none" stroke="#666" stroke-linecap="round" stroke-linejoin="round" stroke-width="1">
      <rect width="4" height="4" stroke="none"/>
      <rect x="0.5" y="0.5" width="3" height="3" fill="none"/>
    </g>
    <g id="Прямоугольник_42" data-name="Прямоугольник 42" transform="translate(376 532)" fill="none" stroke="#666" stroke-linecap="round" stroke-linejoin="round" stroke-width="1">
      <rect width="4" height="4" stroke="none"/>
      <rect x="0.5" y="0.5" width="3" height="3" fill="none"/>
    </g>
    <g id="Прямоугольник_43" data-name="Прямоугольник 43" transform="translate(376 526)" fill="none" stroke="#666" stroke-linecap="round" stroke-linejoin="round" stroke-width="1">
      <rect width="4" height="4" stroke="none"/>
      <rect x="0.5" y="0.5" width="3" height="3" fill="none"/>
    </g>
    <g id="Прямоугольник_44" data-name="Прямоугольник 44" transform="translate(376 520)" fill="none" stroke="#666" stroke-linecap="round" stroke-linejoin="round" stroke-width="1">
      <rect width="4" height="4" stroke="none"/>
      <rect x="0.5" y="0.5" width="3" height="3" fill="none"/>
    </g>
    <g id="Прямоугольник_45" data-name="Прямоугольник 45" transform="translate(376 514)" fill="none" stroke="#666" stroke-linecap="round" stroke-linejoin="round" stroke-width="1">
      <rect width="4" height="4" stroke="none"/>
      <rect x="0.5" y="0.5" width="3" height="3" fill="none"/>
    </g>
    <g id="Прямоугольник_46" data-name="Прямоугольник 46" transform="translate(382 526)" fill="none" stroke="#666" stroke-linecap="round" stroke-linejoin="round" stroke-width="1">
      <rect width="4" height="10" stroke="none"/>
      <rect x="0.5" y="0.5" width="3" height="9" fill="none"/>
    </g>
    <g id="Прямоугольник_47" data-name="Прямоугольник 47" transform="translate(382 520)" fill="none" stroke="#666" stroke-linecap="round" stroke-linejoin="round" stroke-width="1">
      <rect width="4" height="4" stroke="none"/>
      <rect x="0.5" y="0.5" width="3" height="3" fill="none"/>
    </g>
    <g id="Прямоугольник_48" data-name="Прямоугольник 48" transform="translate(382 514)" fill="none" stroke="#666" stroke-linecap="round" stroke-linejoin="round" stroke-width="1">
      <rect width="4" height="4" stroke="none"/>
      <rect x="0.5" y="0.5" width="3" height="3" fill="none"/>
    </g>
  </g>
</svg>
