<svg xmlns="http://www.w3.org/2000/svg" width="46" height="41" viewBox="0 0 46 41">
  <g id="Сгруппировать_1607" data-name="Сгруппировать 1607" transform="translate(-189.5 -499.5)">
    <rect id="Прямоугольник_24" data-name="Прямоугольник 24" width="5" height="22" transform="translate(230 512)" fill="#666"/>
    <path id="Контур_18" data-name="Контур 18" d="M224,500h2v40h-2" fill="none" stroke="#666" stroke-linejoin="round" stroke-width="1"/>
    <path id="Контур_19" data-name="Контур 19" d="M190,540V507l7-7h25v40Z" fill="none" stroke="#666" stroke-linecap="round" stroke-linejoin="round" stroke-width="1"/>
    <line id="Линия_7" data-name="Линия 7" x2="10.78" transform="translate(205.751 506)" fill="none" stroke="#666" stroke-linecap="round" stroke-linejoin="round" stroke-width="1"/>
    <line id="Линия_8" data-name="Линия 8" x2="13.063" transform="translate(203.468 512.5)" fill="none" stroke="#666" stroke-linecap="round" stroke-linejoin="round" stroke-width="1"/>
    <line id="Линия_9" data-name="Линия 9" x2="8.063" transform="translate(203.468 515.5)" fill="none" stroke="#666" stroke-linecap="round" stroke-linejoin="round" stroke-width="1"/>
    <path id="Контур_20" data-name="Контур 20" d="M197,500v7h-7" fill="none" stroke="#666" stroke-linecap="round" stroke-linejoin="round" stroke-width="1"/>
    <path id="Контур_21" data-name="Контур 21" d="M240,537l-2.5,3-2.5-3V502.5a2.5,2.5,0,0,1,2.5-2.5h0a2.5,2.5,0,0,1,2.5,2.5Z" transform="translate(-5)" fill="none" stroke="#666" stroke-linecap="round" stroke-linejoin="round" stroke-width="1"/>
    <line id="Линия_10" data-name="Линия 10" y2="10" transform="translate(232.5 506)" fill="none" stroke="#666" stroke-linecap="round" stroke-linejoin="round" stroke-width="1"/>
    <line id="Линия_11" data-name="Линия 11" x2="5" transform="translate(230 512)" fill="none" stroke="#666" stroke-linecap="round" stroke-linejoin="round" stroke-width="1"/>
    <line id="Линия_12" data-name="Линия 12" x2="5" transform="translate(230 534)" fill="none" stroke="#666" stroke-linecap="round" stroke-linejoin="round" stroke-width="1"/>
    <rect id="Прямоугольник_25" data-name="Прямоугольник 25" width="5" height="5" transform="translate(195.468 511.5)" fill="none" stroke="#666" stroke-linecap="round" stroke-linejoin="round" stroke-width="1"/>
    <line id="Линия_13" data-name="Линия 13" x2="13.063" transform="translate(203.468 521.5)" fill="none" stroke="#666" stroke-linecap="round" stroke-linejoin="round" stroke-width="1"/>
    <line id="Линия_14" data-name="Линия 14" x2="8.063" transform="translate(203.468 524.5)" fill="none" stroke="#666" stroke-linecap="round" stroke-linejoin="round" stroke-width="1"/>
    <rect id="Прямоугольник_26" data-name="Прямоугольник 26" width="5" height="5" transform="translate(195.468 520.5)" fill="none" stroke="#666" stroke-linecap="round" stroke-linejoin="round" stroke-width="1"/>
    <line id="Линия_15" data-name="Линия 15" x2="13.063" transform="translate(203.468 530.5)" fill="none" stroke="#666" stroke-linecap="round" stroke-linejoin="round" stroke-width="1"/>
    <line id="Линия_16" data-name="Линия 16" x2="8.063" transform="translate(203.468 533.5)" fill="none" stroke="#666" stroke-linecap="round" stroke-linejoin="round" stroke-width="1"/>
    <rect id="Прямоугольник_27" data-name="Прямоугольник 27" width="5" height="5" transform="translate(195.468 529.5)" fill="none" stroke="#666" stroke-linecap="round" stroke-linejoin="round" stroke-width="1"/>
  </g>
</svg>
