<svg xmlns="http://www.w3.org/2000/svg" xmlns:xlink="http://www.w3.org/1999/xlink" width="71.279" height="87.592" viewBox="0 0 71.279 87.592">
  <defs>
    <linearGradient id="linear-gradient" y1="0.5" x2="1" y2="0.5" gradientUnits="objectBoundingBox">
      <stop offset="0" stop-opacity="0.251"/>
      <stop offset="0.045" stop-opacity="0.4"/>
      <stop offset="0.5"/>
      <stop offset="0.955" stop-opacity="0.4"/>
      <stop offset="1" stop-opacity="0.251"/>
    </linearGradient>
  </defs>
  <g id="Сгруппировать_1118" data-name="Сгруппировать 1118" transform="translate(-565.986 -442.232)">
    <path id="Контур_5765" data-name="Контур 5765" d="M566.362,529.824a281.707,281.707,0,0,1,66.467,0l-.415-83.537H565.986Z" opacity="0.2" fill="url(#linear-gradient)"/>
    <g id="Сгруппировать_1113" data-name="Сгруппировать 1113">
      <path id="Контур_5766" data-name="Контур 5766" d="M569.362,526.824h66.467l-3.414-80.537H565.986Z" fill="#fff"/>
      <g id="Сгруппировать_1112" data-name="Сгруппировать 1112">
        <line id="Линия_762" data-name="Линия 762" x2="45.011" transform="translate(576.206 459.457)" fill="none" stroke="#b3b3b3" stroke-miterlimit="10" stroke-width="0.838"/>
        <line id="Линия_763" data-name="Линия 763" x2="45.011" transform="translate(577.609 477.057)" fill="none" stroke="#b3b3b3" stroke-miterlimit="10" stroke-width="0.838"/>
        <line id="Линия_764" data-name="Линия 764" x2="45.011" transform="translate(577.814 482.555)" fill="none" stroke="#b3b3b3" stroke-miterlimit="10" stroke-width="0.838"/>
        <line id="Линия_765" data-name="Линия 765" x2="45.011" transform="translate(578.31 492.657)" fill="none" stroke="#b3b3b3" stroke-miterlimit="10" stroke-width="0.838"/>
        <line id="Линия_766" data-name="Линия 766" x2="45.011" transform="translate(578.516 497.857)" fill="none" stroke="#b3b3b3" stroke-miterlimit="10" stroke-width="0.838"/>
        <line id="Линия_767" data-name="Линия 767" x2="45.011" transform="translate(579.012 507.657)" fill="none" stroke="#b3b3b3" stroke-miterlimit="10" stroke-width="0.838"/>
        <line id="Линия_768" data-name="Линия 768" x2="45.011" transform="translate(579.218 512.857)" fill="none" stroke="#b3b3b3" stroke-miterlimit="10" stroke-width="0.838"/>
      </g>
    </g>
    <g id="Сгруппировать_1117" data-name="Сгруппировать 1117">
      <path id="Контур_5767" data-name="Контур 5767" d="M569.482,522.826l66.346,4,1.436-80.6-66.308-4Z" fill="#e6e6e6"/>
      <path id="Контур_5768" data-name="Контур 5768" d="M569.362,526.824h66.467l-3.414-80.537H565.986Z" fill="#fff"/>
      <g id="Сгруппировать_1114" data-name="Сгруппировать 1114">
        <line id="Линия_769" data-name="Линия 769" x2="49.011" transform="translate(575.609 480.057)" fill="none" stroke="#ccc" stroke-miterlimit="10" stroke-width="1"/>
        <line id="Линия_770" data-name="Линия 770" x2="49.011" transform="translate(575.814 484.555)" fill="none" stroke="#ccc" stroke-miterlimit="10" stroke-width="1"/>
        <line id="Линия_771" data-name="Линия 771" x2="49.011" transform="translate(576.31 495.657)" fill="none" stroke="#ccc" stroke-miterlimit="10" stroke-width="1"/>
        <line id="Линия_772" data-name="Линия 772" x2="49.011" transform="translate(576.516 499.857)" fill="none" stroke="#ccc" stroke-miterlimit="10" stroke-width="1"/>
        <line id="Линия_773" data-name="Линия 773" x2="19.011" transform="translate(577.012 510.657)" fill="none" stroke="#ccc" stroke-miterlimit="10" stroke-width="1"/>
        <line id="Линия_774" data-name="Линия 774" x2="19.011" transform="translate(577.218 514.857)" fill="none" stroke="#ccc" stroke-miterlimit="10" stroke-width="1"/>
        <line id="Линия_775" data-name="Линия 775" x2="19.011" transform="translate(607.012 510.657)" fill="none" stroke="#ccc" stroke-miterlimit="10" stroke-width="1"/>
        <line id="Линия_776" data-name="Линия 776" x2="19.011" transform="translate(607.218 514.857)" fill="none" stroke="#ccc" stroke-miterlimit="10" stroke-width="1"/>
      </g>
      <g id="Сгруппировать_1116" data-name="Сгруппировать 1116">
        <g id="Сгруппировать_1115" data-name="Сгруппировать 1115">
          <path id="Контур_5769" data-name="Контур 5769" d="M575.194,463.146a1.59,1.59,0,0,1-.639-1.325v-.33a.089.089,0,0,1,.1-.1h.31a.088.088,0,0,1,.1.1v.3a1.19,1.19,0,0,0,.51,1,2.3,2.3,0,0,0,1.4.38,2.018,2.018,0,0,0,1.268-.346,1.146,1.146,0,0,0,.439-.955,1.088,1.088,0,0,0-.194-.645,1.91,1.91,0,0,0-.6-.514,9.457,9.457,0,0,0-1.143-.551,12.845,12.845,0,0,1-1.173-.55,1.887,1.887,0,0,1-.635-.555,1.455,1.455,0,0,1-.239-.865,1.518,1.518,0,0,1,.564-1.265,2.467,2.467,0,0,1,1.563-.445,2.649,2.649,0,0,1,1.708.5,1.637,1.637,0,0,1,.619,1.34v.23a.088.088,0,0,1-.1.1h-.33a.088.088,0,0,1-.1-.1v-.2a1.233,1.233,0,0,0-.48-1.014,2.1,2.1,0,0,0-1.348-.386,1.882,1.882,0,0,0-1.168.315,1.071,1.071,0,0,0-.409.906,1.046,1.046,0,0,0,.189.649,1.606,1.606,0,0,0,.544.436q.354.185,1.094.484a8.626,8.626,0,0,1,1.193.575,2.327,2.327,0,0,1,.714.646,1.5,1.5,0,0,1,.26.889,1.6,1.6,0,0,1-.6,1.3,2.579,2.579,0,0,1-1.678.49A2.772,2.772,0,0,1,575.194,463.146Z" fill="#666"/>
          <path id="Контур_5770" data-name="Контур 5770" d="M581.186,463.271a1.825,1.825,0,0,1-.679-.99,5.105,5.105,0,0,1-.11-1.25,4.965,4.965,0,0,1,.11-1.239,1.816,1.816,0,0,1,.674-.986,2.169,2.169,0,0,1,2.416.005,1.769,1.769,0,0,1,.674.981,2.708,2.708,0,0,1,.08.514q.021.285.021.725,0,.461-.021.74a2.7,2.7,0,0,1-.08.51,1.767,1.767,0,0,1-.674.99,1.99,1.99,0,0,1-1.213.37A1.954,1.954,0,0,1,581.186,463.271Zm2.1-.394a1.335,1.335,0,0,0,.484-.776,5.079,5.079,0,0,0,.07-1.059,5.859,5.859,0,0,0-.06-1.061,1.315,1.315,0,0,0-.484-.78,1.45,1.45,0,0,0-.914-.29,1.43,1.43,0,0,0-.909.29,1.327,1.327,0,0,0-.479.78,8.067,8.067,0,0,0,0,2.12,1.33,1.33,0,0,0,.479.781,1.551,1.551,0,0,0,1.813,0Z" fill="#666"/>
          <path id="Контур_5771" data-name="Контур 5771" d="M585.849,463.462v-6.8a.088.088,0,0,1,.1-.1h.329a.089.089,0,0,1,.1.1v6.8a.089.089,0,0,1-.1.1h-.329A.088.088,0,0,1,585.849,463.462Z" fill="#666"/>
          <path id="Контур_5772" data-name="Контур 5772" d="M588.056,457.371a.532.532,0,1,1,.36.14A.487.487,0,0,1,588.056,457.371Zm.07,6.08v-4.84a.089.089,0,0,1,.1-.1h.329a.089.089,0,0,1,.1.1v4.84a.088.088,0,0,1-.1.1h-.329A.088.088,0,0,1,588.126,463.451Z" fill="#666"/>
          <path id="Контур_5773" data-name="Контур 5773" d="M591.088,463.271a1.783,1.783,0,0,1-.665-.99,4.946,4.946,0,0,1-.129-1.25,5.044,5.044,0,0,1,.129-1.239,1.732,1.732,0,0,1,.66-.981,1.973,1.973,0,0,1,1.208-.37,2.079,2.079,0,0,1,1.223.36,1.568,1.568,0,0,1,.654.9,2.035,2.035,0,0,1,.06.28V460q0,.069-.09.09l-.319.04H593.8c-.046,0-.076-.031-.089-.09l-.031-.141a1.168,1.168,0,0,0-.468-.7,1.494,1.494,0,0,0-.919-.285,1.423,1.423,0,0,0-.914.29,1.276,1.276,0,0,0-.464.77,4.838,4.838,0,0,0-.09,1.071,4.612,4.612,0,0,0,.09,1.059,1.286,1.286,0,0,0,.464.781,1.422,1.422,0,0,0,.914.29,1.512,1.512,0,0,0,.924-.286,1.126,1.126,0,0,0,.463-.714l.011-.051c.013-.073.053-.1.119-.09l.31.05c.066.013.1.051.09.11l-.04.18a1.539,1.539,0,0,1-.654.915,2.1,2.1,0,0,1-1.223.355A1.946,1.946,0,0,1,591.088,463.271Z" fill="#666"/>
          <path id="Контур_5774" data-name="Контур 5774" d="M595.566,457.371a.509.509,0,0,1,.719-.72.536.536,0,0,1,0,.72.532.532,0,0,1-.719,0Zm.069,6.08v-4.84a.089.089,0,0,1,.1-.1h.329a.089.089,0,0,1,.1.1v4.84a.088.088,0,0,1-.1.1h-.329A.089.089,0,0,1,595.635,463.451Z" fill="#666"/>
          <path id="Контур_5775" data-name="Контур 5775" d="M599.969,458.971H598.8a.035.035,0,0,0-.039.04v3.161a.924.924,0,0,0,.23.714,1.088,1.088,0,0,0,.738.206h.231a.088.088,0,0,1,.1.1v.271a.088.088,0,0,1-.1.1l-.3.01a1.724,1.724,0,0,1-1.054-.27,1.2,1.2,0,0,1-.364-.99v-3.3a.036.036,0,0,0-.04-.04h-.6a.088.088,0,0,1-.1-.1v-.25a.088.088,0,0,1,.1-.1h.6a.035.035,0,0,0,.04-.04v-1.139a.089.089,0,0,1,.1-.1h.32a.089.089,0,0,1,.1.1v1.139a.035.035,0,0,0,.039.04h1.169a.088.088,0,0,1,.1.1v.25A.088.088,0,0,1,599.969,458.971Z" fill="#666"/>
          <path id="Контур_5776" data-name="Контур 5776" d="M604.643,458.521h.32a.088.088,0,0,1,.1.1v4.841a.088.088,0,0,1-.1.1h-.32a.088.088,0,0,1-.1-.1v-.491c0-.02-.006-.031-.02-.035s-.023.005-.03.026a1.358,1.358,0,0,1-.564.5,1.913,1.913,0,0,1-.834.17,1.764,1.764,0,0,1-1.228-.441,1.544,1.544,0,0,1-.489-1.21v-3.36a.088.088,0,0,1,.1-.1h.32a.089.089,0,0,1,.1.1v3.221a1.306,1.306,0,0,0,.355.959,1.258,1.258,0,0,0,.943.36,1.331,1.331,0,0,0,.978-.364,1.282,1.282,0,0,0,.37-.955v-3.221A.089.089,0,0,1,604.643,458.521Z" fill="#666"/>
          <path id="Контур_5777" data-name="Контур 5777" d="M609.936,456.561h.329a.089.089,0,0,1,.1.1v6.8a.089.089,0,0,1-.1.1h-.329a.088.088,0,0,1-.1-.1v-.491c0-.02-.005-.031-.016-.035s-.022,0-.035.015a1.418,1.418,0,0,1-.559.511,1.71,1.71,0,0,1-.789.179,1.828,1.828,0,0,1-1.148-.36,1.775,1.775,0,0,1-.639-.97,2.345,2.345,0,0,1-.091-.514c-.012-.191-.019-.439-.019-.746s.007-.546.019-.74a2.885,2.885,0,0,1,.08-.519,1.721,1.721,0,0,1,.624-.986,1.872,1.872,0,0,1,1.174-.365,1.71,1.71,0,0,1,.789.18,1.418,1.418,0,0,1,.559.511c.007.019.016.028.03.024s.021-.015.021-.035v-2.46A.088.088,0,0,1,609.936,456.561Zm-.135,5.24q.025-.24.025-.75a7.451,7.451,0,0,0-.029-.775,2.188,2.188,0,0,0-.1-.445,1.242,1.242,0,0,0-.424-.664,1.186,1.186,0,0,0-.774-.256,1.3,1.3,0,0,0-.809.256,1.242,1.242,0,0,0-.459.654,1.528,1.528,0,0,0-.125.436,6.251,6.251,0,0,0-.035.785,6.712,6.712,0,0,0,.03.755,2.106,2.106,0,0,0,.1.434,1.153,1.153,0,0,0,.449.68,1.363,1.363,0,0,0,.839.261,1.189,1.189,0,0,0,.784-.261,1.33,1.33,0,0,0,.435-.68A1.77,1.77,0,0,0,609.8,461.8Z" fill="#666"/>
          <path id="Контур_5778" data-name="Контур 5778" d="M578.09,466.561h.33a.089.089,0,0,1,.1.1v6.8a.088.088,0,0,1-.1.1h-.33a.087.087,0,0,1-.1-.1v-.491c0-.02-.005-.031-.016-.035s-.021,0-.035.015a1.422,1.422,0,0,1-.558.511,1.717,1.717,0,0,1-.79.179,1.83,1.83,0,0,1-1.148-.36,1.785,1.785,0,0,1-.639-.97,2.29,2.29,0,0,1-.09-.514c-.013-.191-.02-.439-.02-.746s.007-.546.02-.74a2.806,2.806,0,0,1,.08-.519,1.711,1.711,0,0,1,.624-.986,1.869,1.869,0,0,1,1.173-.365,1.718,1.718,0,0,1,.79.18,1.423,1.423,0,0,1,.558.511c.007.019.017.028.03.024s.021-.015.021-.035v-2.46A.088.088,0,0,1,578.09,466.561Zm-.134,5.24q.024-.24.024-.75a7.451,7.451,0,0,0-.029-.775,2.188,2.188,0,0,0-.1-.445,1.243,1.243,0,0,0-.424-.664,1.184,1.184,0,0,0-.774-.256,1.307,1.307,0,0,0-.809.256,1.247,1.247,0,0,0-.459.654,1.528,1.528,0,0,0-.125.436,6.263,6.263,0,0,0-.035.785,6.411,6.411,0,0,0,.031.755,2.041,2.041,0,0,0,.1.434,1.158,1.158,0,0,0,.449.68,1.365,1.365,0,0,0,.839.261,1.187,1.187,0,0,0,.784-.261,1.331,1.331,0,0,0,.435-.68A1.816,1.816,0,0,0,577.956,471.8Z" fill="#666"/>
          <path id="Контур_5779" data-name="Контур 5779" d="M582.839,472.956a1.46,1.46,0,0,0,.524-.6c.033-.06.076-.076.13-.05l.26.13c.059.033.076.077.049.13a1.722,1.722,0,0,1-.694.78,2.081,2.081,0,0,1-1.113.29,2.03,2.03,0,0,1-1.189-.34,1.7,1.7,0,0,1-.669-.93,2.764,2.764,0,0,1-.109-.56c-.021-.207-.03-.467-.03-.78s.005-.573.014-.739a2.821,2.821,0,0,1,.066-.461,1.786,1.786,0,0,1,.654-1.01,2.178,2.178,0,0,1,2.522.045,1.89,1.89,0,0,1,.608,1.176,3.68,3.68,0,0,1,.04.444q.011.255.011.635a.089.089,0,0,1-.1.1h-3.255a.035.035,0,0,0-.04.04,4.557,4.557,0,0,0,.05.85,1.278,1.278,0,0,0,.494.775,1.592,1.592,0,0,0,.974.286A1.458,1.458,0,0,0,582.839,472.956Zm-2.322-2.225a.035.035,0,0,0,.04.04h2.786a.035.035,0,0,0,.04-.04,4.2,4.2,0,0,0-.049-.75,1.358,1.358,0,0,0-.48-.775,1.553,1.553,0,0,0-1.807-.01,1.261,1.261,0,0,0-.46.755A4.3,4.3,0,0,0,580.517,470.731Z" fill="#666"/>
          <path id="Контур_5780" data-name="Контур 5780" d="M591.122,470.286q.02.285.02.745c0,.307-.007.556-.02.745a2.907,2.907,0,0,1-.079.516,1.712,1.712,0,0,1-.625.984,1.867,1.867,0,0,1-1.173.365,1.713,1.713,0,0,1-.784-.174,1.41,1.41,0,0,1-.554-.505c-.014-.014-.025-.019-.035-.016s-.016.016-.016.035v2.441a.088.088,0,0,1-.1.1h-.33a.088.088,0,0,1-.1-.1v-6.8a.089.089,0,0,1,.1-.1h.33a.088.088,0,0,1,.1.1v.48c0,.02.006.032.016.035s.021,0,.035-.015a1.4,1.4,0,0,1,.554-.505,1.714,1.714,0,0,1,.784-.175,1.831,1.831,0,0,1,1.148.36,1.792,1.792,0,0,1,.639.97A2.3,2.3,0,0,1,591.122,470.286Zm-.649,1.926a1.509,1.509,0,0,0,.11-.42,9.475,9.475,0,0,0,0-1.506,2.2,2.2,0,0,0-.1-.435,1.152,1.152,0,0,0-.449-.679,1.365,1.365,0,0,0-.839-.261,1.179,1.179,0,0,0-.784.265,1.3,1.3,0,0,0-.425.675,1.849,1.849,0,0,0-.1.42,9.907,9.907,0,0,0,0,1.54,2.264,2.264,0,0,0,.1.441,1.25,1.25,0,0,0,.425.665,1.2,1.2,0,0,0,.784.255,1.33,1.33,0,0,0,.789-.236,1.163,1.163,0,0,0,.449-.615Z" fill="#666"/>
          <path id="Контур_5781" data-name="Контур 5781" d="M595.221,472.956a1.455,1.455,0,0,0,.525-.6c.033-.06.076-.076.13-.05l.259.13c.06.033.077.077.05.13a1.722,1.722,0,0,1-.694.78,2.087,2.087,0,0,1-1.113.29,2.03,2.03,0,0,1-1.189-.34,1.7,1.7,0,0,1-.669-.93,2.632,2.632,0,0,1-.109-.56c-.021-.207-.03-.467-.03-.78s0-.573.014-.739a2.719,2.719,0,0,1,.066-.461,1.786,1.786,0,0,1,.654-1.01,2.177,2.177,0,0,1,2.521.045,1.886,1.886,0,0,1,.609,1.176,3.68,3.68,0,0,1,.04.444q.011.255.011.635a.089.089,0,0,1-.1.1H592.94a.035.035,0,0,0-.04.04,4.557,4.557,0,0,0,.05.85,1.278,1.278,0,0,0,.494.775,1.592,1.592,0,0,0,.974.286A1.452,1.452,0,0,0,595.221,472.956Zm-2.321-2.225a.035.035,0,0,0,.04.04h2.786a.035.035,0,0,0,.04-.04,4.087,4.087,0,0,0-.05-.75,1.351,1.351,0,0,0-.479-.775,1.554,1.554,0,0,0-1.808-.01,1.27,1.27,0,0,0-.46.755A4.423,4.423,0,0,0,592.9,470.731Z" fill="#666"/>
          <path id="Контур_5782" data-name="Контур 5782" d="M600.955,468.922a1.669,1.669,0,0,1,.473,1.239v3.3a.087.087,0,0,1-.1.1H601a.088.088,0,0,1-.1-.1v-3.2a1.333,1.333,0,0,0-.359-.964,1.243,1.243,0,0,0-.939-.375,1.322,1.322,0,0,0-.969.364,1.285,1.285,0,0,0-.369.955v3.221a.088.088,0,0,1-.1.1h-.329a.088.088,0,0,1-.1-.1v-4.841a.088.088,0,0,1,.1-.1h.329a.089.089,0,0,1,.1.1v.49c0,.021.005.032.015.035s.019,0,.025-.014a1.423,1.423,0,0,1,.579-.5,1.854,1.854,0,0,1,.829-.176A1.692,1.692,0,0,1,600.955,468.922Z" fill="#666"/>
          <path id="Контур_5783" data-name="Контур 5783" d="M603.61,473.436a1.558,1.558,0,0,1-.645-.474,1.064,1.064,0,0,1-.229-.661v-.129a.088.088,0,0,1,.1-.1h.309a.088.088,0,0,1,.1.1v.109a.77.77,0,0,0,.37.636,1.578,1.578,0,0,0,.938.264,1.439,1.439,0,0,0,.909-.27.816.816,0,0,0,.349-.67.622.622,0,0,0-.179-.46,1.207,1.207,0,0,0-.424-.274c-.163-.064-.409-.146-.735-.246a7.8,7.8,0,0,1-.9-.32,1.559,1.559,0,0,1-.574-.425,1.03,1.03,0,0,1-.236-.695,1.162,1.162,0,0,1,.485-.975,2.065,2.065,0,0,1,1.273-.365,2.347,2.347,0,0,1,.934.175,1.528,1.528,0,0,1,.63.476,1.105,1.105,0,0,1,.224.679v.031a.088.088,0,0,1-.1.1h-.31a.088.088,0,0,1-.1-.1v-.031a.76.76,0,0,0-.354-.635,1.572,1.572,0,0,0-.934-.254,1.55,1.55,0,0,0-.9.234.735.735,0,0,0-.34.636.621.621,0,0,0,.315.569,4.522,4.522,0,0,0,.983.391,8.065,8.065,0,0,1,.924.319,1.749,1.749,0,0,1,.594.425,1.025,1.025,0,0,1,.249.716,1.231,1.231,0,0,1-.484,1.014,2.016,2.016,0,0,1-1.293.385A2.422,2.422,0,0,1,603.61,473.436Z" fill="#666"/>
          <path id="Контур_5784" data-name="Контур 5784" d="M607.71,467.371a.509.509,0,0,1,.718-.72.533.533,0,0,1,0,.72.53.53,0,0,1-.718,0Zm.069,6.08v-4.84a.089.089,0,0,1,.1-.1h.329a.088.088,0,0,1,.1.1v4.84a.088.088,0,0,1-.1.1h-.329A.088.088,0,0,1,607.779,473.451Z" fill="#666"/>
          <path id="Контур_5785" data-name="Контур 5785" d="M610.736,473.271a1.827,1.827,0,0,1-.68-.99,5.167,5.167,0,0,1-.109-1.25,5.024,5.024,0,0,1,.109-1.239,1.817,1.817,0,0,1,.675-.986,2.169,2.169,0,0,1,2.416.005,1.769,1.769,0,0,1,.674.981,2.784,2.784,0,0,1,.08.514q.021.285.021.725,0,.461-.021.74a2.779,2.779,0,0,1-.08.51,1.767,1.767,0,0,1-.674.99,1.99,1.99,0,0,1-1.213.37A1.951,1.951,0,0,1,610.736,473.271Zm2.1-.394a1.336,1.336,0,0,0,.484-.776,5.079,5.079,0,0,0,.07-1.059,5.857,5.857,0,0,0-.06-1.061,1.321,1.321,0,0,0-.485-.78,1.445,1.445,0,0,0-.913-.29,1.43,1.43,0,0,0-.909.29,1.327,1.327,0,0,0-.479.78,8.06,8.06,0,0,0,0,2.12,1.329,1.329,0,0,0,.479.781,1.551,1.551,0,0,0,1.813,0Zm-1.274-5.061a.081.081,0,0,1,.011-.085l.608-1.1a.119.119,0,0,1,.12-.071h.29a.084.084,0,0,1,.08.035.082.082,0,0,1-.01.085l-.669,1.1a.144.144,0,0,1-.12.07h-.23A.083.083,0,0,1,611.564,467.816Z" fill="#666"/>
          <path id="Контур_5786" data-name="Контур 5786" d="M618.56,468.922a1.666,1.666,0,0,1,.474,1.239v3.3a.088.088,0,0,1-.1.1H618.6a.088.088,0,0,1-.1-.1v-3.2a1.334,1.334,0,0,0-.36-.964,1.241,1.241,0,0,0-.938-.375,1.319,1.319,0,0,0-.969.364,1.285,1.285,0,0,0-.369.955v3.221a.089.089,0,0,1-.1.1h-.329a.087.087,0,0,1-.1-.1v-4.841a.088.088,0,0,1,.1-.1h.329a.089.089,0,0,1,.1.1v.49c0,.021.005.032.014.035s.019,0,.026-.014a1.417,1.417,0,0,1,.579-.5,1.85,1.85,0,0,1,.828-.176A1.689,1.689,0,0,1,618.56,468.922Z" fill="#666"/>
        </g>
      </g>
    </g>
  </g>
</svg>
